<svg width="24" height="24" viewBox="0 0 24 24" fill="none" xmlns="http://www.w3.org/2000/svg">
<g id="SVG">
<path id="Vector" fill-rule="evenodd" clip-rule="evenodd" d="M10.12 4.14007C8.53136 4.14007 7.00778 4.77115 5.88444 5.8945C4.76109 7.01784 4.13 8.54142 4.13 10.1301C4.13 11.7187 4.76109 13.2423 5.88444 14.3656C7.00778 15.489 8.53136 16.1201 10.12 16.1201C11.7087 16.1201 13.2322 15.489 14.3556 14.3656C15.4789 13.2423 16.11 11.7187 16.11 10.1301C16.11 8.54142 15.4789 7.01784 14.3556 5.8945C13.2322 4.77115 11.7087 4.14007 10.12 4.14007ZM2.63 10.1301C2.62998 8.93069 2.91797 7.74885 3.46977 6.68395C4.02157 5.61905 4.82103 4.70223 5.80091 4.01062C6.78079 3.319 7.91243 2.87281 9.10064 2.70958C10.2889 2.54635 11.4989 2.67086 12.629 3.07262C13.7591 3.47438 14.7761 4.14165 15.5947 5.0183C16.4132 5.89496 17.0092 6.95536 17.3326 8.11031C17.656 9.26526 17.6973 10.481 17.453 11.6552C17.2088 12.8295 16.6861 13.9279 15.929 14.8581L21.37 20.3001L20.31 21.3611L14.87 15.9211C13.7731 16.8207 12.4433 17.3904 11.0354 17.5638C9.62737 17.7371 8.19909 17.5071 6.91675 16.9004C5.63441 16.2937 4.55074 15.3353 3.79184 14.1367C3.03294 12.9381 2.63004 11.5487 2.63 10.1301Z" fill="black"/>
</g>
</svg>
